<svg width="218" height="409" viewBox="0 0 218 409" fill="none" xmlns="http://www.w3.org/2000/svg">
<path d="M93.8435 220.135C60.3876 210.348 52.9748 201.945 44.458 185.748C13.2707 176.392 14.4588 167.612 31.2885 149.166C23.994 120.303 27.1093 104.617 39.3365 77.0998C60.9439 51.429 79.3211 41.1469 132.986 36.4938C183.272 46.165 188.319 59.7505 199.199 83.3187C209.529 113.437 209.829 124.331 207.613 140.752C218.496 150.403 222.975 155.916 203.955 167.457C188.721 198.567 177.215 207.257 154.935 217.574C131.015 225.865 117.637 226.055 93.8435 220.135Z" fill="#FCC7A8"/>
<path d="M76.2842 331.71H48.8478L49.9452 407.069L71.5286 404.508L76.2842 331.71Z" fill="#FCC7A8"/>
<path d="M171.397 399.752L167.739 331.71C178.311 331.71 194.81 325.491 194.81 331.71C194.81 337.929 199.199 399.752 199.199 399.752H171.397Z" fill="#FCC7A8"/>
<path d="M93.8435 220.135C60.3876 210.348 52.9748 201.945 44.458 185.748C13.2707 176.392 14.4588 167.612 31.2885 149.166C23.994 120.303 27.1093 104.617 39.3365 77.0998C60.9439 51.429 79.3211 41.1469 132.986 36.4938C183.272 46.165 188.319 59.7505 199.199 83.3187C209.529 113.437 209.829 124.331 207.613 140.752C218.496 150.403 222.975 155.916 203.955 167.457C188.721 198.567 177.215 207.257 154.935 217.574C131.015 225.865 117.637 226.055 93.8435 220.135Z" stroke="black" stroke-width="2"/>
<path d="M76.2842 331.71H48.8478L49.9452 407.069L71.5286 404.508L76.2842 331.71Z" stroke="black" stroke-width="2"/>
<path d="M171.397 399.752L167.739 331.71C178.311 331.71 194.81 325.491 194.81 331.71C194.81 337.929 199.199 399.752 199.199 399.752H171.397Z" stroke="black" stroke-width="2"/>
<path d="M1.29035 94.2933C-0.29996 123.447 4.53375 137.224 18.4839 159.409L29.8242 149.898C26.4981 126.84 23.1954 114.679 37.5065 82.2212C46.2283 66.6275 52.8822 58.2225 79.2098 46.0051C98.7184 37.6872 114.213 36.0031 152.739 40.152C176.014 51.911 188.813 59.1933 203.588 94.2933C201.423 77.3544 208.662 79.5716 184.2 31.7382C165.941 15.2987 153.731 7.93327 125.303 1.00937C97.1302 1.08308 82.0855 -0.806963 44.457 23.6902C23.0732 42.5327 11.9489 54.7619 1.29035 94.2933Z" fill="#904B24" stroke="black" stroke-width="2"/>
<path d="M81.7707 82.9407C65.619 90.1059 56.6098 94.1765 55.4317 119.523C64.5194 149.232 77.3465 151.014 106.646 141.838C118.534 130.366 122.012 122.398 117.621 103.061C112.168 88.8429 106.075 83.1283 81.7707 82.9407Z" fill="#FBFCFF"/>
<path d="M186.395 82.9407C169.062 75.9617 159.333 72.5918 141.399 96.8418C136.56 115.269 139.264 124.403 160.422 137.082C181.2 142.667 188.9 138.057 197.37 119.523C199.662 104.331 200.441 95.8831 186.395 82.9407Z" fill="#FBFCFF"/>
<path d="M81.7707 82.9407C65.619 90.1059 56.6098 94.1765 55.4317 119.523C64.5194 149.232 77.3465 151.014 106.646 141.838C118.534 130.366 122.012 122.398 117.621 103.061C112.168 88.8429 106.075 83.1283 81.7707 82.9407Z" stroke="black" stroke-width="2"/>
<path d="M186.395 82.9407C169.062 75.9617 159.333 72.5918 141.399 96.8418C136.56 115.269 139.264 124.403 160.422 137.082C181.2 142.667 188.9 138.057 197.37 119.523C199.662 104.331 200.441 95.8831 186.395 82.9407Z" stroke="black" stroke-width="2"/>
<path d="M109.939 111.853L113.231 108.56L116.523 110.755L115.792 115.145H109.939V111.853Z" fill="black"/>
<path d="M189.321 105.268L193.345 101.244L197.004 102.341L196.272 105.268H189.321Z" fill="black"/>
<path d="M109.939 111.853L113.231 108.56L116.523 110.755L115.792 115.145H109.939V111.853Z" stroke="black" stroke-width="2"/>
<path d="M189.321 105.268L193.345 101.244L197.004 102.341L196.272 105.268H189.321Z" stroke="black" stroke-width="2"/>
<path d="M169.202 211.721C128.392 231.623 107.879 229.083 72.6253 216.843C59.8169 231.398 54.3612 240.977 51.0419 263.302C44.1234 293.63 43.9056 307.11 44.4572 330.247L76.2834 331.71L72.6253 405.971L172.128 400.118L166.641 331.71C185.855 328.433 193.23 326.896 199.564 324.759C195.967 255.443 187.6 235.931 169.202 211.721Z" fill="#F4F482"/>
<path d="M63.1147 75.2706L97.5017 66.8568M155.667 63.1986L182.006 65.0277M108.842 190.87L161.886 187.211M126.036 147.703L139.937 153.922L143.229 145.508L135.913 137.46M166.641 331.71C185.855 328.433 193.23 326.896 199.564 324.759C195.967 255.443 187.6 235.931 169.202 211.721C128.392 231.623 107.879 229.083 72.6253 216.843C59.8169 231.398 54.3612 240.977 51.0419 263.302C44.1234 293.63 43.9056 307.11 44.4572 330.247L76.2834 331.71L72.6253 405.971L172.128 400.118L166.641 331.71ZM166.641 331.71H161.886L157.129 267.326M76.2834 330.247V272.447" stroke="black" stroke-width="2"/>
</svg>
