<svg width="303" height="641" viewBox="0 0 303 641" fill="none" xmlns="http://www.w3.org/2000/svg">
<path d="M127.205 137.567C124.71 140.052 124.039 143.189 124.475 152.779C130.44 161.463 134.515 166.399 143.977 175.402C152.357 182.696 157.821 183.724 168.161 183.203C183.757 181.19 191.617 177.44 202.095 160.19C203.309 158.091 203.815 155.973 204.045 148.488C217.04 144.118 216.721 139.944 207.556 130.546C209.712 116.08 210.985 108.016 209.116 90.7612C207.775 79.1112 207.168 72.5869 194.294 60.3373C181.13 53.2993 173.108 50.1153 156.069 57.2168C148.748 59.7175 144.999 64.0733 138.907 71.2587C131.334 90.52 128.642 101.522 127.205 121.575C115.747 128.956 115.987 134.264 127.205 137.567Z" fill="#E0D6CD" stroke="black" stroke-width="2"/>
<path d="M147.488 135.227C141.441 134.296 138.474 135.422 133.837 139.907L131.886 149.268C132.318 157.795 137.046 161.817 151.389 167.991C159.551 170.035 166.017 170.42 179.472 170.331C190.983 165.935 197.601 163.602 195.464 148.098C195.723 143.284 194.449 141.228 181.813 142.248L175.572 144.978C168.741 145.627 165.325 145.348 159.97 143.808C155.963 139.509 153.066 137.81 147.488 135.227Z" fill="#7F3438" stroke="black" stroke-width="2"/>
<path d="M149.049 144.198C145.934 141.71 145.554 139.873 146.708 136.007L154.119 139.907L160.36 144.978L167.381 146.148H168.551L175.182 145.758L182.593 143.028H189.224C189.567 145.835 189.083 147.118 186.103 148.488C183.482 147.128 183.054 146.041 182.842 144.682C183.132 147.219 182.725 149.001 179.863 151.609C177.318 149.646 176.474 148.284 175.182 145.758C175.712 147.891 175.632 149.086 175.182 151.219C174.335 152.763 173.554 153.282 171.672 153.559C170.18 153.241 169.317 153.133 168.551 150.829C168.086 148.941 168.14 147.924 168.551 146.148H167.381C167.773 148.276 167.786 149.467 166.991 151.609C164.539 152.306 163.169 152.627 160.75 151.219C160.049 149.474 160.081 147.96 160.36 144.978C160.187 145.978 159.349 147.186 156.85 150.439C153.997 146.867 153.263 144.605 154.119 139.907C152.289 142.518 151.12 143.6 149.049 144.198Z" fill="#E4D7B7"/>
<path d="M154.119 139.907C152.289 142.518 151.12 143.6 149.049 144.198C145.934 141.71 145.554 139.873 146.708 136.007L154.119 139.907ZM154.119 139.907C153.263 144.605 153.997 146.867 156.85 150.439C159.349 147.186 160.187 145.978 160.36 144.978M154.119 139.907L160.36 144.978M160.36 144.978C160.081 147.96 160.049 149.474 160.75 151.219C163.169 152.627 164.539 152.306 166.991 151.609C167.786 149.467 167.773 148.276 167.381 146.148M160.36 144.978L167.381 146.148M167.381 146.148H168.551M168.551 146.148C168.14 147.924 168.086 148.941 168.551 150.829C169.317 153.133 170.18 153.241 171.672 153.559C173.554 153.282 174.335 152.763 175.182 151.219C175.632 149.086 175.712 147.891 175.182 145.758M168.551 146.148L175.182 145.758M175.182 145.758C176.474 148.284 177.318 149.646 179.863 151.609C183.307 148.47 183.196 146.528 182.593 143.028M175.182 145.758L182.593 143.028M182.593 143.028C183.039 145.271 182.508 146.623 186.103 148.488C189.083 147.118 189.567 145.835 189.224 143.028H182.593Z" stroke="black" stroke-width="2"/>
<path d="M137.737 159.41C138.312 158.59 138.87 158.239 141.248 158.24C143.923 159.876 143.955 161.207 143.588 163.7C144.434 162.279 145.002 161.574 146.708 160.97C150.273 161.531 150.198 163.216 149.829 166.431C149.825 166.46 149.822 166.489 149.819 166.517L150.287 166.623C150.965 165.285 152.144 162.198 152.559 162.53C155.209 161.978 156.102 162.175 156.85 163.31L158.02 168.381C158.913 166.474 159.438 165.456 161.14 165.26C162.353 165.001 163.049 165.009 164.26 165.26C165.592 166.322 166.279 166.981 166.601 169.161C167.141 166.888 167.622 165.89 169.721 166.041C172.505 166.661 172.952 167.806 173.622 169.941C173.84 167.391 174.252 166.123 177.522 165.26C180.341 165.755 181.488 166.158 181.033 167.601C180.831 169.087 181.256 168.825 181.813 168.771L173.622 169.941L166.601 169.161L158.02 168.381L150.287 166.623C149.929 167.331 149.71 167.55 149.819 166.517L149.439 166.431C146.943 166.061 145.532 165.889 143.588 163.7C140.893 162.452 139.629 161.492 137.737 159.41Z" fill="#E4D7B7"/>
<path d="M143.588 163.7C143.955 161.207 143.923 159.876 141.248 158.24C138.87 158.239 138.312 158.59 137.737 159.41C139.629 161.492 140.893 162.452 143.588 163.7ZM143.588 163.7C144.434 162.279 145.002 161.574 146.708 160.97C150.273 161.531 150.198 163.216 149.829 166.431C149.459 169.645 151.919 162.018 152.559 162.53C155.209 161.978 156.102 162.175 156.85 163.31L158.02 168.381M143.588 163.7C145.532 165.889 146.943 166.061 149.439 166.431L158.02 168.381M158.02 168.381C158.913 166.474 159.438 165.456 161.14 165.26C162.353 165.001 163.049 165.009 164.26 165.26C165.592 166.322 166.279 166.981 166.601 169.161M158.02 168.381L166.601 169.161M166.601 169.161C167.141 166.888 167.622 165.89 169.721 166.041C172.505 166.661 172.952 167.806 173.622 169.941M166.601 169.161L173.622 169.941M173.622 169.941C173.84 167.391 174.252 166.123 177.522 165.26C180.341 165.755 181.488 166.158 181.033 167.601C180.831 169.087 181.256 168.825 181.813 168.771L173.622 169.941Z" stroke="black" stroke-width="2"/>
<path d="M166.6 73.5989C145.218 74.0279 138.644 75.1309 141.637 79.4496C147.077 81.5622 155.562 81.7768 177.132 81.0098L192.344 84.5203C202.705 86.4228 206.92 86.8053 204.825 83.3501C203.256 82.5154 202.28 82.0096 196.244 79.4496C186.281 74.2285 179.683 73.1542 166.6 73.5989Z" fill="#B3DCF2" stroke="black" stroke-width="2"/>
<path d="M264.503 208.556C259.708 213.301 258.74 216.56 260.993 223.768L266.844 228.058C271.737 223.127 275.399 220.56 283.616 216.357C290.949 216.129 294.51 215.082 299.218 210.506C301.242 202.003 302.247 197.231 301.948 188.663C298.512 187.245 296.58 186.593 292.977 188.663C289.225 187.667 287.153 187.748 283.616 190.614L283.578 190.607C279.477 189.915 277.167 189.524 273.085 192.954C268.975 192.731 266.941 193.119 264.503 196.074V208.556Z" fill="#E0D6CD"/>
<path d="M283.616 190.614C279.491 189.917 277.18 189.514 273.085 192.954C268.975 192.731 266.941 193.119 264.503 196.074V208.556C259.708 213.301 258.74 216.56 260.993 223.768L266.844 228.058C271.737 223.127 275.399 220.56 283.616 216.357C290.949 216.129 294.51 215.082 299.218 210.506C301.242 202.003 302.247 197.231 301.948 188.663C298.512 187.245 296.58 186.593 292.977 188.663M283.616 190.614C287.153 187.748 289.225 187.667 292.977 188.663M283.616 190.614C286.678 196.243 287.023 199.518 286.736 205.435M292.977 188.663C294.565 194.452 294.259 197.697 292.977 203.485M264.894 207.386C266.418 208.865 267.269 208.708 268.794 207.386C269.548 204.015 269.029 202.514 266.844 200.365M278.935 206.216C278.113 200.883 276.96 198.039 273.085 193.344" stroke="black" stroke-width="2"/>
<path d="M51.5362 155.509C55.749 171.361 60.4684 179.085 68.6984 192.954C72.7344 194.992 74.7692 194.092 78.4496 192.954C81.6844 189.632 82.402 187.478 83.5203 183.593C83.4802 181.509 83.6703 180.32 84.6699 178.132L85.0805 176.182L87.8108 172.671C89.7868 169.473 90.0293 167.679 87.8108 164.48L84.3124 161.936L83.5203 161.36C82.7979 158.574 82.2253 157.989 81.12 157.459L80.3999 156.289C78.246 153.088 76.8323 152.292 74.1591 151.609C73.5536 149.287 72.7263 148.299 70.6486 146.928C62.4857 148.337 58.2976 150.163 51.5362 155.509Z" fill="#E0D6CD"/>
<path d="M74.1591 151.609C73.5536 149.287 72.7263 148.299 70.6486 146.928C62.4857 148.337 58.2976 150.163 51.5362 155.509C55.749 171.361 60.4684 179.085 68.6984 192.954C72.7344 194.992 74.7692 194.092 78.4496 192.954C81.6844 189.632 82.402 187.478 83.5203 183.593C83.4802 181.509 83.6703 180.32 84.6699 178.132M74.1591 151.609C76.8323 152.292 78.246 153.088 80.3999 156.289L81.12 157.459M74.1591 151.609C68.3274 152.911 65.1911 154.311 59.7273 157.459M71.4287 146.928L80.3999 148.878C83.9526 151.85 90.2285 153.499 92.8815 153.949C95.5344 154.399 87.2918 160.28 85.0805 161.36L83.5203 162.53C77.6049 163.828 74.9169 164.925 71.4287 167.601M66.3581 163.31C70.9669 160.119 74.2809 158.896 81.12 157.459M81.12 157.459C82.2253 157.989 82.7979 158.574 83.5203 161.36L87.8108 164.48C90.0293 167.679 89.7868 169.473 87.8108 172.671L85.0805 176.182L84.6699 178.132M76.4994 172.671C78.0814 173.118 78.9396 172.964 80.3999 171.696M84.3004 170.721C82.8261 170.555 81.9909 170.535 80.3999 171.696M80.3999 171.696C80.546 176.054 82.1866 176.608 84.6699 178.132" stroke="black" stroke-width="2"/>
<path d="M256.312 223.768C251.852 226.338 250.48 228.213 249.682 232.349L261.383 238.59C265.728 236.674 267.405 235.148 267.624 230.789C264.255 225.106 261.598 224.073 256.312 223.768Z" fill="#A2DFE0"/>
<path d="M79.6202 195.294H67.5287C66.5697 199.102 66.6448 201.237 67.5287 205.045C77.9689 205.314 78.4501 205.045 79.6202 202.315C80.7904 199.585 82.1833 197.811 79.6202 195.294Z" fill="#A2DFE0"/>
<path d="M256.312 223.768C251.852 226.338 250.48 228.213 249.682 232.349L261.383 238.59C265.728 236.674 267.405 235.148 267.624 230.789C264.255 225.106 261.598 224.073 256.312 223.768Z" stroke="black" stroke-width="2"/>
<path d="M79.6202 195.294H67.5287C66.5697 199.102 66.6448 201.237 67.5287 205.045C77.9689 205.314 78.4501 205.045 79.6202 202.315C80.7904 199.585 82.1833 197.811 79.6202 195.294Z" stroke="black" stroke-width="2"/>
<path d="M139.297 366.916H124.475L125.236 377.837H138.917L139.297 366.916Z" fill="#F1DD40" stroke="black" stroke-width="2"/>
<path d="M37.4945 604.846L35.9343 591.194C41.095 589.491 43.9965 589.462 49.196 590.414C52.0993 596.049 51.6743 599.209 50.3661 604.846H37.4945Z" fill="#E0D6CD"/>
<path d="M179.082 591.194L176.742 601.335L191.174 602.896C190.125 599.738 189.204 597.973 194.684 594.705C189.295 591.849 186.067 590.678 179.082 591.194Z" fill="#E0D6CD"/>
<path d="M37.4945 604.846L35.9343 591.194C41.095 589.491 43.9965 589.462 49.196 590.414C52.0993 596.049 51.6743 599.209 50.3661 604.846H37.4945Z" stroke="black" stroke-width="2"/>
<path d="M179.082 591.194L176.742 601.335L191.174 602.896C190.125 599.738 189.204 597.973 194.684 594.705C189.295 591.849 186.067 590.678 179.082 591.194Z" stroke="black" stroke-width="2"/>
<path d="M51.9263 604.456H34.3741C14.3864 618.672 7.74478 625.477 2 636.05C23.4569 642.543 34.6874 639.829 54.6566 634.49C55.4688 622.814 55.215 616.248 51.9263 604.456Z" fill="#4E4E4E"/>
<path d="M193.124 601.725C185.965 604.139 181.951 603.562 174.792 601.725C170.093 612.273 168.767 618.412 171.281 630.199C195.026 633.226 230.179 633.319 232.519 631.759C234.859 630.199 207.187 614.078 193.124 601.725Z" fill="#4E4E4E"/>
<path d="M51.9263 604.456H34.3741C14.3864 618.672 7.74478 625.477 2 636.05C23.4569 642.543 34.6874 639.829 54.6566 634.49C55.4688 622.814 55.215 616.248 51.9263 604.456Z" stroke="black" stroke-width="2"/>
<path d="M193.124 601.725C185.965 604.139 181.951 603.562 174.792 601.725C170.093 612.273 168.767 618.412 171.281 630.199C195.026 633.226 230.179 633.319 232.519 631.759C234.859 630.199 207.187 614.078 193.124 601.725Z" stroke="black" stroke-width="2"/>
<path d="M148.268 394.219C133.704 391.767 125.797 391.971 111.993 394.219C88.8426 432.966 73.8063 453.135 45.2948 487.831C42.6155 527.111 45.4793 549.268 52.7057 588.854L28.9127 591.584C18.9203 552.319 20.5851 531.431 25.4023 494.462C54.8242 447.211 75.5099 421.475 111.993 375.497C127.512 380.679 139.728 379.475 163.09 375.497C190.24 420.47 198.153 450.168 214.966 501.483C213.001 537.651 209.54 558.292 200.924 595.485L177.912 591.584C188.025 556.561 191.49 536.841 192.733 501.483C179.257 454.937 169.37 431.643 148.268 394.219Z" fill="#907650" stroke="black" stroke-width="2"/>
<path d="M83.5203 202.705C76.4814 206.834 72.2687 207.325 64.4079 205.826C62.0805 239.657 64.3893 258.268 66.7482 291.636C70.0121 309.105 74.2908 309.447 82.3501 308.408C99.461 293.325 101.637 281.212 104.973 260.432L102.243 291.636C99.6931 328.107 97.0316 348.468 82.3501 384.078C68.7835 414.242 58.7016 430.23 37.1044 457.407C27.1058 471.641 23.9924 480.355 21.5025 496.802C53.0746 462.025 72.2336 445.818 97.562 396.95C113.226 370.795 120.151 354.851 125.646 321.67L132.276 230.399L138.907 182.423C124.765 182.945 116.779 182.775 103.413 189.834C94.9436 211.948 91.7531 225.072 87.4317 249.121C87.6793 229.761 87.4989 219.129 83.5203 202.705Z" fill="#FAFAFA"/>
<path d="M89.371 272.134L87.4317 249.121M87.4317 249.121C87.6793 229.761 87.4989 219.129 83.5203 202.705C76.4814 206.834 72.2687 207.325 64.4079 205.826C62.0805 239.657 64.3893 258.268 66.7482 291.636C70.0121 309.105 74.2908 309.447 82.3501 308.408C99.461 293.325 101.637 281.212 104.973 260.432M87.4317 249.121C91.7531 225.072 94.9436 211.948 103.413 189.834C116.779 182.775 124.765 182.945 138.907 182.423L132.276 230.399L125.646 321.67C120.151 354.851 113.226 370.795 97.562 396.95C72.2336 445.818 53.0746 462.025 21.5025 496.802C23.9924 480.355 27.1058 471.641 37.1044 457.407C58.7016 430.23 68.7835 414.242 82.3501 384.078C97.0316 348.468 99.6931 328.107 102.243 291.636L104.973 260.432M104.973 260.432C109.402 242.832 110.808 232.903 113.164 215.187L111.214 231.959M111.214 231.959C118.773 213.146 124.444 203.209 136.567 186.323M111.214 231.959C114.532 238.586 117.596 241.86 124.475 247.171C116.937 251.812 112.097 253.573 107.313 261.993C110.106 285.523 112.682 298.562 118.235 321.67" stroke="black" stroke-width="2"/>
<path d="M207.166 201.925C194.953 192.119 186.794 188.375 169.331 185.543C165.431 224.599 162.558 258.419 159.58 281.495L151.389 367.696C151.478 388.525 158.667 402.997 174.792 430.104C189.425 463.279 200.279 480.17 221.208 509.284C198.728 453.513 184.253 422.767 173.232 363.795C172.357 347.769 174.2 339.164 178.693 324.01C186.038 298.28 185.853 284.005 187.274 258.482C189.355 277.326 189.819 287.721 194.685 307.238C202.99 314.351 207.716 313.998 216.137 305.288C234.797 283.213 245.491 269.904 265.674 241.71C257.622 240.662 253.134 240.587 244.611 230.399C234.286 249.941 228.001 260.658 211.457 277.205C211.683 249.276 210.659 232.728 207.166 201.925Z" fill="#FAFAFA"/>
<path d="M160.36 325.181L181.813 271.354L170.112 250.681L185.323 240.15L173.232 189.834M193.124 212.846L187.274 256.922M169.331 185.543C186.794 188.375 194.953 192.119 207.166 201.925C210.659 232.728 211.683 249.276 211.457 277.205C228.001 260.658 234.286 249.941 244.611 230.399C253.134 240.587 257.622 240.662 265.674 241.71C245.491 269.904 234.797 283.213 216.137 305.288C207.716 313.998 202.99 314.351 194.685 307.238C189.819 287.721 189.355 277.326 187.274 258.482C185.853 284.005 186.038 298.28 178.693 324.01C174.2 339.164 172.357 347.769 173.232 363.795C184.253 422.767 198.728 453.513 221.208 509.284C200.279 480.17 189.425 463.279 174.792 430.104C158.667 402.997 151.478 388.525 151.389 367.696L159.58 281.495C162.558 258.419 165.431 224.599 169.331 185.543Z" stroke="black" stroke-width="2"/>
<path d="M168.551 192.564C157.003 200.373 150.508 200.295 138.907 189.834C131.198 261.749 127.071 302.448 115.114 366.136H149.829L168.551 192.564Z" fill="#9EE1E0"/>
<path d="M134.227 262.383C143.813 267.865 149.187 268.014 158.8 264.723M138.907 189.834C150.508 200.295 157.003 200.373 168.551 192.564L149.829 366.136H115.114C127.071 302.448 131.198 261.749 138.907 189.834Z" stroke="black" stroke-width="2"/>
<path d="M168.941 183.203C158.252 183.949 152.481 182.77 142.808 176.182C140.922 178.575 140.115 181.324 139.297 189.443C149.922 198.841 155.919 199.793 166.601 192.954C168.894 190.501 170.105 189.053 168.941 183.203Z" fill="#E0D6CD" stroke="black" stroke-width="2"/>
<path d="M130.716 162.53H122.135C121.798 158.228 122.33 155.444 124.085 150.049C114.857 151.103 111.091 150.243 104.973 148.098C106.174 141.565 108.244 137.739 115.114 130.546L94.0516 118.065C100.651 111.148 105.846 108.228 116.674 104.023C107.773 95.4891 101.885 91.8111 89.7611 87.2506C102.445 81.358 109.938 79.275 124.085 77.8894C115.28 62.0564 112.024 52.7426 109.264 35.3741C124.412 44.0523 133.532 47.7243 151.389 52.1462C157.489 37.1899 159.253 26.0937 160.36 3C173.703 17.7963 178.484 26.7172 182.983 43.5651C198.079 29.4827 206.43 23.8308 221.208 15.8716C220.752 24.9604 223.586 28.62 218.087 40.0547C210.529 50.175 209.702 54.4637 210.676 61.1173C228.48 65.2688 238.594 64.4292 256.702 61.1173C245.295 65.2853 240.421 68.8735 234.859 77.8894C230.356 87.0049 225.542 90.2683 218.087 97.0019C229.89 103.539 236.45 104.186 248.121 104.023C235.131 110.462 227.273 112.635 218.087 128.596C220.407 136.379 225.25 138.818 234.859 142.638C231.181 145.868 226.655 146.565 214.967 146.148C216.16 150.281 216.837 154.383 218.087 166.431C210.333 166.004 206.813 164.597 201.315 160.97C201.077 165.787 200.652 168.513 198.975 173.451L195.074 170.721L201.315 160.97C203.012 157.767 203.739 154.941 204.826 148.878C207.138 139.602 208.1 133.917 209.116 122.745C211.427 103.98 211.156 93.3421 205.606 73.989C199.176 62.043 193.987 56.2155 173.232 52.1462C158.489 54.3905 150.499 56.4226 139.687 69.6984C134.43 80.3066 131.916 86.5646 129.156 98.9521C127.165 107.315 126.799 112.14 126.426 120.795C126.059 127.436 125.921 131.113 126.426 137.177C124.54 142.169 124.087 144.989 124.085 150.049C125.668 155.385 127.428 157.976 130.716 162.53Z" fill="#B3DCF2"/>
<path d="M124.085 150.049C122.33 155.444 121.798 158.228 122.135 162.53H130.716C127.428 157.976 125.668 155.385 124.085 150.049ZM124.085 150.049C114.857 151.103 111.091 150.243 104.973 148.098C106.174 141.565 108.244 137.739 115.114 130.546L94.0516 118.065C100.651 111.148 105.846 108.228 116.674 104.023C107.773 95.4891 101.885 91.8111 89.7611 87.2506C102.445 81.358 109.938 79.275 124.085 77.8894C115.28 62.0564 112.024 52.7426 109.264 35.3741C124.412 44.0523 133.532 47.7243 151.389 52.1462C157.489 37.1899 159.253 26.0937 160.36 3C173.703 17.7963 178.484 26.7172 182.983 43.5651C198.079 29.4827 206.43 23.8308 221.208 15.8716C220.752 24.9604 223.586 28.62 218.087 40.0547C210.529 50.175 209.702 54.4637 210.676 61.1173C228.48 65.2688 238.594 64.4292 256.702 61.1173C245.295 65.2853 240.421 68.8735 234.859 77.8894C230.356 87.0049 225.542 90.2683 218.087 97.0019C229.89 103.539 236.45 104.186 248.121 104.023C235.131 110.462 227.273 112.635 218.087 128.596C220.407 136.379 225.25 138.818 234.859 142.638C231.181 145.868 226.655 146.565 214.967 146.148C216.16 150.281 216.837 154.383 218.087 166.431C210.333 166.004 206.813 164.597 201.315 160.97M124.085 150.049C124.087 144.989 124.54 142.169 126.426 137.177C125.921 131.113 126.059 127.436 126.426 120.795C126.799 112.14 127.165 107.315 129.156 98.9521C131.916 86.5646 134.43 80.3066 139.687 69.6984C150.499 56.4226 158.489 54.3905 173.232 52.1462C193.987 56.2155 199.176 62.043 205.606 73.989C211.156 93.3421 211.427 103.98 209.116 122.745C208.1 133.917 207.138 139.602 204.826 148.878C203.739 154.941 203.012 157.767 201.315 160.97M201.315 160.97C201.077 165.787 200.652 168.513 198.975 173.451L195.074 170.721L201.315 160.97Z" stroke="black" stroke-width="2"/>
<path d="M161.92 155.119C158.356 155.746 156.952 157.097 155.289 160.97C157.729 161.502 158.594 162.394 158.41 166.041C159.543 164.33 160.569 163.886 163.48 164.09C166.381 162.037 167.262 160.764 167.381 158.24C167.27 155.228 166.021 154.553 161.92 155.119Z" fill="#E25960" stroke="black" stroke-width="2"/>
<path d="M127.596 137.177C131.701 132.098 134.749 131.149 140.467 130.156M190.004 137.957C199.747 140.5 201.519 143.194 203.265 148.488C203.117 163.842 197.745 168.151 185.713 173.842M178.302 125.085C185.919 131.152 190.542 131.692 199.755 127.426M135.787 120.405C144.153 126.632 148.966 126.576 157.63 124.305M163.09 118.845V134.057C166.287 140.345 168.083 139.643 171.281 134.057L172.451 120.405" stroke="black" stroke-width="2"/>
<path d="M149.829 86.8606C138.65 88.4308 135.441 92.3175 134.227 103.633C135.411 113.021 139.122 115.865 149.829 117.674C161.497 116.962 165.274 113.759 166.601 102.463C166.707 92.5543 163.889 88.6463 149.829 86.8606Z" fill="white"/>
<path d="M188.444 91.1511C179.346 92.1779 175.999 94.62 174.402 103.633C172.655 114.631 175.265 118.888 188.444 121.965C201.62 120.162 206.126 116.705 205.996 103.633C203.972 97.0946 200.824 94.1209 188.444 91.1511Z" fill="white"/>
<path d="M149.829 86.8606C138.65 88.4308 135.441 92.3175 134.227 103.633C135.411 113.021 139.122 115.865 149.829 117.674C161.497 116.962 165.274 113.759 166.601 102.463C166.707 92.5543 163.889 88.6463 149.829 86.8606Z" stroke="black" stroke-width="2"/>
<path d="M188.444 91.1511C179.346 92.1779 175.999 94.62 174.402 103.633C172.655 114.631 175.265 118.888 188.444 121.965C201.62 120.162 206.126 116.705 205.996 103.633C203.972 97.0946 200.824 94.1209 188.444 91.1511Z" stroke="black" stroke-width="2"/>
<path d="M138.517 101.292V102.072V102.463V103.243H141.248L142.028 102.853V100.902L140.857 100.122L140.077 100.512L139.297 101.292H138.517Z" fill="black"/>
<path d="M200.535 107.923L198.975 108.313L197.805 108.703L198.195 110.654L199.365 111.044H201.705V109.483V107.923H200.535Z" fill="black"/>
<path d="M138.517 101.292V102.072V102.463V103.243H141.248L142.028 102.853V100.902L140.857 100.122L140.077 100.512L139.297 101.292H138.517Z" stroke="black" stroke-width="2"/>
<path d="M200.535 107.923L198.975 108.313L197.805 108.703L198.195 110.654L199.365 111.044H201.705V109.483V107.923H200.535Z" stroke="black" stroke-width="2"/>
<path d="M123.958 366.916H113.917L111.214 374.717L123.958 376.45V366.916Z" fill="#423E25"/>
<path d="M140.178 378.617V366.916L140.95 367.349L150.219 366.916V376.45L140.178 378.617Z" fill="#423E25"/>
<path d="M123.958 366.916H113.917L111.214 374.717L123.958 376.45V366.916Z" stroke="black" stroke-width="2"/>
<path d="M140.178 378.617V366.916L140.95 367.349L150.219 366.916V376.45L140.178 378.617Z" stroke="black" stroke-width="2"/>
</svg>
